# Generated by Visualization Toolkit
v 0 75.19999694824219 320.70001220703125
v 0 75.19999694824219 56.69999694824219
v -65.12510681152344 37.599998474121094 320.70001220703125
v -65.12510681152344 37.599998474121094 56.69999694824219
v -65.12510681152344 -37.599998474121094 320.70001220703125
v -65.12510681152344 -37.599998474121094 56.69999694824219
v -9.209343696165752e-15 -75.19999694824219 320.70001220703125
v -9.209343696165752e-15 -75.19999694824219 56.69999694824219
v 65.12510681152344 -37.599998474121094 320.70001220703125
v 65.12510681152344 -37.599998474121094 56.69999694824219
v 65.12510681152344 37.599998474121094 320.70001220703125
v 65.12510681152344 37.599998474121094 56.69999694824219
v 0 75.19999694824219 320.70001220703125
v -65.12510681152344 37.599998474121094 320.70001220703125
v -65.12510681152344 -37.599998474121094 320.70001220703125
v -9.209343696165752e-15 -75.19999694824219 320.70001220703125
v 65.12510681152344 -37.599998474121094 320.70001220703125
v 65.12510681152344 37.599998474121094 320.70001220703125
v 65.12510681152344 37.599998474121094 56.69999694824219
v 65.12510681152344 -37.599998474121094 56.69999694824219
v -9.209343696165752e-15 -75.19999694824219 56.69999694824219
v -65.12510681152344 -37.599998474121094 56.69999694824219
v -65.12510681152344 37.599998474121094 56.69999694824219
v 0 75.19999694824219 56.69999694824219
vn 0 1 0
vn 0 1 0
vn -0.8660253882408142 0.5 0
vn -0.8660253882408142 0.5 0
vn -0.8660253882408142 -0.5 0
vn -0.8660253882408142 -0.5 0
vn -1.2246468525851679e-16 -1 0
vn -1.2246468525851679e-16 -1 0
vn 0.8660253882408142 -0.5 0
vn 0.8660253882408142 -0.5 0
vn 0.8660253882408142 0.5 0
vn 0.8660253882408142 0.5 0
vn 0 0 1
vn 0 0 1
vn 0 0 1
vn 0 0 1
vn 0 0 1
vn 0 0 1
vn 0 0 -1
vn 0 0 -1
vn 0 0 -1
vn 0 0 -1
vn 0 0 -1
vn 0 0 -1
# tcoords array 0
vt 1 0
vt 1 1
vt 0.6666666865348816 0
vt 0.6666666865348816 1
vt 0.3333333432674408 0
vt 0.3333333432674408 1
vt 0 0
vt 0 1
vt 0.3333333432674408 0
vt 0.3333333432674408 1
vt 0.6666666865348816 0
vt 0.6666666865348816 1
vt 75.19999694824219 0
vt 37.599998474121094 -65.12510681152344
vt -37.599998474121094 -65.12510681152344
vt -75.19999694824219 -9.209343696165752e-15
vt -37.599998474121094 65.12510681152344
vt 37.599998474121094 65.12510681152344
vt 37.599998474121094 65.12510681152344
vt -37.599998474121094 65.12510681152344
vt -75.19999694824219 -9.209343696165752e-15
vt -37.599998474121094 -65.12510681152344
vt 37.599998474121094 -65.12510681152344
vt 75.19999694824219 0
f 1/1/1 2/2/2 3/3/3
f 4/4/4 3/3/3 2/2/2
f 3/3/3 4/4/4 5/5/5
f 6/6/6 5/5/5 4/4/4
f 5/5/5 6/6/6 7/7/7
f 8/8/8 7/7/7 6/6/6
f 7/7/7 8/8/8 9/9/9
f 10/10/10 9/9/9 8/8/8
f 9/9/9 10/10/10 11/11/11
f 12/12/12 11/11/11 10/10/10
f 11/11/11 12/12/12 1/1/1
f 2/2/2 1/1/1 12/12/12
f 13/13/13 14/14/14 18/18/18
f 18/18/18 14/14/14 17/17/17
f 14/14/14 15/15/15 17/17/17
f 16/16/16 17/17/17 15/15/15
f 21/21/21 22/22/22 20/20/20
f 20/20/20 22/22/22 19/19/19
f 22/22/22 23/23/23 19/19/19
f 24/24/24 19/19/19 23/23/23
